<svg width="45" height="45" viewBox="0 0 45 45" fill="none" xmlns="http://www.w3.org/2000/svg">
<path d="M18.2812 7.03125H41.4844V9.84375H18.2812V7.03125Z" fill="#C4C4C4"/>
<path d="M3.51562 8.4375C3.51563 9.55002 3.84553 10.6376 4.46361 11.5626C5.08169 12.4876 5.9602 13.2086 6.98803 13.6343C8.01587 14.0601 9.14686 14.1715 10.238 13.9544C11.3292 13.7374 12.3314 13.2016 13.1181 12.415C13.9048 11.6283 14.4405 10.626 14.6575 9.53488C14.8746 8.44374 14.7632 7.31274 14.3374 6.28491C13.9117 5.25707 13.1907 4.37857 12.2657 3.76048C11.3407 3.1424 10.2531 2.8125 9.14062 2.8125C7.6493 2.81417 6.21953 3.40734 5.165 4.46187C4.11047 5.5164 3.5173 6.94617 3.51562 8.4375ZM9.14062 5.625C9.69689 5.625 10.2407 5.78995 10.7032 6.09899C11.1657 6.40803 11.5262 6.84729 11.739 7.3612C11.9519 7.87512 12.0076 8.44062 11.8991 8.98619C11.7906 9.53176 11.5227 10.0329 11.1294 10.4262C10.736 10.8196 10.2349 11.0874 9.68932 11.196C9.14374 11.3045 8.57824 11.2488 8.06433 11.0359C7.55041 10.823 7.11116 10.4626 6.80212 10C6.49308 9.53753 6.32812 8.99376 6.32812 8.4375C6.32896 7.69184 6.62555 6.97695 7.15281 6.44969C7.68008 5.92242 8.39496 5.62584 9.14062 5.625Z" fill="#C4C4C4"/>
<path d="M18.2812 21.0938H41.4844V23.9062H18.2812V21.0938Z" fill="#C4C4C4"/>
<path d="M9.14062 28.125C10.2531 28.125 11.3407 27.7951 12.2657 27.177C13.1907 26.5589 13.9117 25.6804 14.3374 24.6526C14.7632 23.6248 14.8746 22.4938 14.6575 21.4026C14.4405 20.3115 13.9048 19.3092 13.1181 18.5225C12.3314 17.7359 11.3292 17.2001 10.238 16.9831C9.14686 16.766 8.01587 16.8774 6.98803 17.3032C5.9602 17.7289 5.08169 18.4499 4.46361 19.3749C3.84553 20.2999 3.51563 21.3875 3.51562 22.5C3.5173 23.9913 4.11047 25.4211 5.165 26.4756C6.21953 27.5302 7.6493 28.1233 9.14062 28.125ZM9.14062 19.6875C9.69689 19.6875 10.2407 19.8525 10.7032 20.1615C11.1657 20.4705 11.5262 20.9098 11.739 21.4237C11.9519 21.9376 12.0076 22.5031 11.8991 23.0487C11.7906 23.5943 11.5227 24.0954 11.1294 24.4887C10.736 24.8821 10.2349 25.1499 9.68932 25.2585C9.14374 25.367 8.57824 25.3113 8.06433 25.0984C7.55041 24.8855 7.11116 24.5251 6.80212 24.0625C6.49308 23.6 6.32812 23.0563 6.32812 22.5C6.32896 21.7543 6.62555 21.0395 7.15281 20.5122C7.68008 19.9849 8.39496 19.6883 9.14062 19.6875Z" fill="#C4C4C4"/>
<path d="M18.2812 35.1562H41.4844V37.9688H18.2812V35.1562Z" fill="#C4C4C4"/>
<path d="M9.14062 42.1875C10.2531 42.1875 11.3407 41.8576 12.2657 41.2395C13.1907 40.6214 13.9117 39.7429 14.3374 38.7151C14.7632 37.6873 14.8746 36.5563 14.6575 35.4651C14.4405 34.374 13.9048 33.3717 13.1181 32.585C12.3314 31.7984 11.3292 31.2626 10.238 31.0456C9.14686 30.8285 8.01587 30.9399 6.98803 31.3657C5.9602 31.7914 5.08169 32.5124 4.46361 33.4374C3.84553 34.3624 3.51563 35.45 3.51562 36.5625C3.5173 38.0538 4.11047 39.4836 5.165 40.5381C6.21953 41.5927 7.6493 42.1858 9.14062 42.1875ZM9.14062 33.75C9.69689 33.75 10.2407 33.915 10.7032 34.224C11.1657 34.533 11.5262 34.9723 11.739 35.4862C11.9519 36.0001 12.0076 36.5656 11.8991 37.1112C11.7906 37.6568 11.5227 38.1579 11.1294 38.5512C10.736 38.9446 10.2349 39.2124 9.68932 39.321C9.14374 39.4295 8.57824 39.3738 8.06433 39.1609C7.55041 38.948 7.11116 38.5876 6.80212 38.125C6.49308 37.6625 6.32812 37.1188 6.32812 36.5625C6.32896 35.8168 6.62555 35.102 7.15281 34.5747C7.68008 34.0474 8.39496 33.7508 9.14062 33.75Z" fill="#C4C4C4"/>
</svg>
