<svg width="48" height="48" viewBox="0 0 48 48" fill="none" xmlns="http://www.w3.org/2000/svg">
<path d="M24 4C19.5817 4 16 7.58172 16 12C16 16.4183 19.5817 20 24 20C28.4183 20 32 16.4183 32 12C32 7.58172 28.4183 4 24 4ZM20 12C20 9.79088 21.7909 8 24 8C26.2091 8 28 9.79088 28 12C28 14.2091 26.2091 16 24 16C21.7909 16 20 14.2091 20 12Z" fill="#C4C4C4"/>
<path d="M34 24H13.9999C10.6862 24 8 26.6864 8 30C8 34.4643 9.83588 38.0411 12.8486 40.4592C15.8137 42.8392 19.7877 44 24 44C28.2123 44 32.1863 42.8392 35.1514 40.4592C38.1641 38.0411 40 34.4643 40 30C40 26.6863 37.3137 24 34 24ZM13.9999 28H34C35.1046 28 36 28.8954 36 30C36 33.2676 34.7019 35.6909 32.6476 37.3398C30.5457 39.0269 27.5197 40 24 40C20.4803 40 17.4543 39.0269 15.3524 37.3398C13.2981 35.6909 12 33.2676 12 30C12 28.8955 12.8955 28 13.9999 28Z" fill="#C4C4C4"/>
</svg>
