<svg width="315" height="38" viewBox="0 0 315 38" fill="none" xmlns="http://www.w3.org/2000/svg">
<g filter="url(#filter0_d_272_1)">
<path d="M17.24 20.224H8.984C8.28 20.224 7.512 20.096 6.84 20.032L8.024 21.888L8.568 21.44H17.24V27.552C17.24 28.704 17.112 29.92 17.048 31.072C18.136 30.88 19.192 30.688 20.248 30.368C20.216 29.28 20.12 28.192 20.12 27.104V21.44H30.84C30.968 21.44 31.064 21.28 31.064 21.152C31.064 20.736 28.92 18.656 28.504 18.656C28.152 18.656 26.712 20.128 26.616 20.224H20.12V17.376C20.376 17.248 21.048 16.896 21.048 16.544C21.048 15.904 18.136 15.392 17.752 15.328C17.592 15.296 17.4 15.232 17.24 15.232C17.08 15.232 16.824 15.296 16.824 15.488C16.824 15.84 17.08 16.256 17.112 16.64C17.144 16.928 17.24 17.312 17.24 17.6V20.224ZM14.392 3.04C13.624 2.656 11.48 1.6 10.616 1.6C10.52 1.6 10.232 1.664 10.232 1.76C10.232 1.92 10.328 2.048 10.392 2.176C10.68 2.72 10.84 3.712 10.84 4.32V13.312C10.84 14.464 10.68 15.648 10.616 16.8C11.576 16.608 12.536 16.448 13.464 16.096V15.008H24.248L24.184 16.704C25.24 16.512 26.296 16.32 27.32 16C27.256 15.04 27.16 14.048 27.16 13.12V4.736C27.352 4.512 28.024 3.968 28.024 3.648C28.024 3.328 25.752 1.792 25.368 1.792C25.08 1.792 24.184 2.912 24.056 3.04H14.392ZM24.248 13.888H13.464V9.472H24.248V13.888ZM13.464 8.352V4.704L13.944 4.16H24.248V8.352H13.464ZM45.272 12.896C44.792 12.704 42.072 11.616 41.656 11.616C41.464 11.616 41.304 11.744 41.304 11.904C41.304 11.968 41.592 13.28 41.624 13.504C41.72 14.08 41.752 14.656 41.752 15.2V17.664C41.752 20.48 41.56 23.904 40.472 26.464C39.992 27.584 39.48 28.64 38.872 29.664C38.808 29.792 38.616 30.08 38.616 30.208C38.616 30.272 38.68 30.432 38.744 30.432C38.968 30.432 40.088 29.28 40.28 29.088C42.168 27.232 43.736 24.8 44.088 22.112C44.152 21.536 44.216 20.96 44.28 20.352H45.784C45.912 20.896 45.944 21.44 45.944 21.984V26.24C45.944 27.008 45.848 27.456 45.208 27.936L46.84 30.912C47.672 29.984 48.6 29.312 49.624 28.608C50.424 28.032 51.192 27.456 52.024 26.912C52.152 26.816 52.664 26.528 52.664 26.368C52.664 26.24 52.664 26.144 52.504 26.144C52.344 26.144 48.92 27.072 48.536 27.168V21.6C48.728 21.472 49.208 21.184 49.208 20.896C49.208 20.672 48.824 20.448 48.664 20.352H51.032L51.256 21.44C51.96 24.864 53.976 27.008 56.664 29.12C57.496 29.792 58.424 30.4 59.384 30.88C60.056 30.24 60.856 29.728 61.752 29.44C62.008 29.376 62.84 29.216 62.84 28.928C62.84 28.832 62.776 28.768 62.648 28.736C61.464 28.352 60.408 27.904 59.288 27.36C57.784 26.592 56.376 25.6 55.032 24.544C56.184 24.192 57.336 23.776 58.456 23.392C58.712 23.392 58.968 23.424 59.224 23.424C59.352 23.424 59.64 23.456 59.64 23.232C59.64 22.688 57.304 20.896 57.112 20.896C56.984 20.896 56.92 21.12 56.888 21.216C56.472 21.952 55 23.296 54.328 23.872C53.08 22.688 52.472 21.952 51.8 20.352H61.976C62.136 20.352 62.296 20.256 62.296 20.096C62.296 19.744 60.472 17.92 60.248 17.92C60.056 17.92 58.712 19.232 58.616 19.328H44.344C44.44 17.728 44.504 16.128 44.536 14.56L45.048 13.952H62.232C62.392 13.952 62.552 13.856 62.552 13.696C62.552 13.376 60.6 11.52 60.216 11.52C59.96 11.52 58.744 12.736 58.584 12.896H45.272ZM56.024 16.16H47.032C46.424 16.16 45.72 16.032 45.112 16L46.2 17.632L46.776 17.248H59.288C59.48 17.248 59.736 17.152 59.736 16.928C59.736 16.704 59.448 16.416 59.288 16.288L58.072 15.168C57.976 15.072 57.784 14.976 57.624 14.976C57.272 14.976 56.152 16.064 56.024 16.16ZM42.968 11.52C43.928 11.36 44.824 11.2 45.752 10.816V10.432H55.992L55.864 11.616C56.856 11.424 57.848 11.168 58.808 10.784C58.776 9.984 58.648 9.152 58.648 8.352V4.512C58.872 4.32 59.448 3.968 59.448 3.648C59.448 3.296 57.56 2.144 57.368 2.016C57.208 1.92 56.984 1.76 56.792 1.76C56.472 1.76 55.64 2.88 55.48 3.04H46.392C45.816 2.784 43.576 1.888 43 1.888C42.808 1.888 42.776 1.984 42.776 2.144C42.776 2.496 43.032 2.976 43.064 3.36C43.128 3.776 43.128 4.16 43.128 4.576V8.384C43.128 9.408 43 10.496 42.968 11.52ZM45.752 9.376V7.296H55.992V9.376H45.752ZM45.752 6.24V4.544L46.2 4.096H55.992V6.24H45.752ZM84.792 6.56C84.856 5.568 84.888 4.64 83.896 4.032C83.352 3.712 82.712 3.68 82.2 3.968C81.208 4.48 81.048 5.632 81.176 6.624C81.56 10.624 82.104 16.192 82.584 20.96C82.616 21.28 82.808 21.472 83.064 21.504C83.288 21.536 83.512 21.376 83.576 20.896C84.056 16 84.44 10.72 84.792 6.56ZM80.792 25.28C80.792 26.528 81.816 27.488 83 27.488C84.216 27.488 85.208 26.496 85.208 25.28C85.208 24.064 84.216 23.072 83 23.072C81.784 23.072 80.792 24.032 80.792 25.28ZM110.296 26.56C110.424 26.56 110.776 26.144 110.872 26.048C113.304 23.584 114.776 20.128 116.28 17.056C116.472 16.96 117.24 16.64 117.24 16.384C117.24 15.776 115 14.976 114.456 14.784C114.328 14.72 113.72 14.464 113.624 14.464C113.528 14.464 113.528 14.56 113.528 14.656C113.528 14.88 113.592 15.104 113.592 15.424C113.592 18.496 111.736 23.04 110.36 25.792C110.296 25.92 110.136 26.208 110.136 26.336C110.136 26.4 110.2 26.56 110.296 26.56ZM118.904 3.488C119.064 3.456 119.896 3.168 119.896 2.944C119.896 2.496 119.192 2.144 118.84 1.984L117.4 1.28C117.144 1.152 116.216 0.703999 115.928 0.703999C115.768 0.703999 115.8 1.088 115.8 1.184C115.8 2.208 115.416 3.296 115.128 4.256C114.072 7.68 112.728 11.392 110.904 14.464C110.84 14.592 110.584 14.944 110.584 15.104C110.584 15.168 110.648 15.328 110.744 15.328C111.192 15.328 115 10.144 115.384 9.6H123.768C123.48 10.624 122.936 12.032 122.488 13.056C122.424 13.184 122.232 13.504 122.232 13.664C122.232 13.76 122.328 13.888 122.424 13.888C122.52 13.888 122.616 13.792 122.68 13.728C123.288 12.96 123.928 12.064 124.728 11.488C125.176 11.168 125.656 10.944 126.168 10.848C126.68 10.752 127.544 10.688 127.544 10.016C127.544 9.856 127.48 9.696 127.384 9.568C127.16 9.184 124.952 7.456 124.536 7.456C124.216 7.456 123.704 8.256 123.544 8.48H116.024C117.048 6.848 117.944 5.152 118.904 3.488ZM120.408 12.256C120.632 12.128 121.368 11.776 121.368 11.456C121.368 10.528 118.584 10.176 117.88 10.048C117.784 10.016 117.688 9.984 117.56 9.984C117.464 9.984 117.272 10.016 117.272 10.176C117.272 10.272 117.56 10.976 117.624 11.168C117.72 11.552 117.72 12 117.72 12.384V26.624C117.72 27.392 117.304 27.392 116.664 27.392C115.8 27.392 114.936 27.296 114.072 27.232C113.944 27.2 113.72 27.296 113.72 27.456C113.72 27.648 114.456 27.84 114.584 27.904C115.864 28.352 116.472 29.28 116.6 30.592C117.464 30.592 118.488 30.496 119.256 30.016C119.96 29.568 120.408 29.216 120.408 28.32V12.256ZM121.432 16.128C121.432 16.16 121.464 16.224 121.496 16.256C122.136 17.184 122.712 18.08 123.16 19.104C123.704 20.352 124.056 22.272 124.088 23.616C124.088 24 124.088 24.416 124.184 24.768C124.376 25.472 125.08 25.856 125.752 25.856C126.744 25.856 127.288 24.864 127.288 23.968C127.288 23.328 127 22.368 126.808 21.76C126.488 20.672 125.88 19.776 125.08 18.976C124.664 18.56 122.072 15.968 121.656 15.968C121.56 15.968 121.432 16 121.432 16.128ZM111.736 3.52C111.96 3.456 112.664 3.2 112.664 2.88C112.664 2.4 109.944 1.056 109.368 0.927999C109.208 0.895998 109.08 0.831999 108.92 0.799999C108.856 0.863998 108.856 1.024 108.856 1.088C108.792 2.08 108.024 4.384 107.704 5.408C106.712 8.576 105.848 11.168 104.408 14.176C104.088 14.88 103.768 15.584 103.384 16.224C103.288 16.416 102.744 17.216 102.744 17.408C102.744 17.504 102.808 17.6 102.904 17.6C103.288 17.6 105.944 14.144 106.296 13.664C106.52 13.312 106.776 12.96 107 12.608V26.528C107 27.904 106.84 29.344 106.776 30.72C107.8 30.592 108.824 30.4 109.784 30.048C109.72 28.8 109.592 27.52 109.592 26.272V11.776C109.784 11.616 110.36 11.232 110.36 11.008C110.36 10.656 108.76 10.144 108.472 10.048C109.624 7.904 110.584 5.664 111.736 3.52ZM148.632 2.976C148.824 2.88 149.464 2.592 149.464 2.336C149.464 2.016 148.824 1.792 148.6 1.728C148.12 1.536 145.624 0.607998 145.336 0.607998C145.048 0.607998 145.048 1.12 144.984 1.312C144.952 1.536 144.888 1.76 144.824 2.016C144.376 3.552 143.16 5.664 142.328 7.04C140.376 10.272 137.72 13.12 134.872 15.552C134.712 15.68 134.008 16.192 134.008 16.384C134.008 16.48 134.072 16.576 134.168 16.576C134.744 16.576 137.24 14.944 137.752 14.592C142.712 11.264 144.92 8.48 147.96 3.424C148.856 6.176 149.944 8.928 151.8 11.2C152.376 11.936 153.048 12.64 153.688 13.344C154.456 14.144 155.224 14.912 156.088 15.616C156.984 14.912 157.272 14.528 158.424 14.368C158.584 14.368 160.152 14.24 160.152 14.016C160.152 13.76 159.608 13.568 159.416 13.44C157.112 12.192 155 10.656 153.112 8.832C152.12 7.872 150.264 6.048 149.624 4.864C149.272 4.256 148.952 3.616 148.632 2.976ZM151.064 18.752H140.568C139.832 18.752 139.032 18.624 138.328 18.56L139.832 20.544L140.504 20H151.224C150.488 21.376 149.72 22.656 148.856 24C148.216 24.96 147.608 25.952 146.872 26.848L144.952 29.184C144.792 29.376 144.6 29.632 144.6 29.92C144.6 30.72 145.752 31.136 146.392 31.136C146.744 31.136 147.192 31.104 147.512 30.912C147.864 30.688 149.112 28.96 149.368 28.576C151.224 26.048 152.984 23.552 154.648 20.928C154.808 20.864 156.024 20.384 156.024 20.128C156.024 19.552 152.792 17.568 152.248 17.568C151.864 17.568 151.256 18.496 151.064 18.752ZM148.184 16.48C149.048 16.48 149.816 15.712 149.816 14.88C149.816 14.592 149.752 14.336 149.72 14.08C149.496 12.64 146.424 11.072 145.112 11.072C145.048 11.072 144.888 11.072 144.888 11.168C144.888 11.232 144.92 11.264 144.92 11.328C145.56 12 145.944 12.32 146.232 13.248C146.584 14.432 146.52 16.48 148.184 16.48ZM184.504 29.888C185.592 29.568 186.648 29.312 187.672 28.896C187.576 27.616 187.448 26.272 187.448 25.024V5.6C187.608 5.44 188.6 4.736 188.6 4.384C188.6 4.128 188.024 3.744 187.832 3.616C187.544 3.424 186.232 2.432 185.752 2.432C185.336 2.432 184.504 3.52 184.344 3.712H174.072C173.016 3.008 172.152 2.592 171 2.08C170.808 2.016 170.424 1.824 170.264 1.824C170.072 1.824 169.88 1.888 169.88 2.08C169.88 2.368 170.008 2.688 170.072 3.008C170.168 3.552 170.264 4.128 170.264 4.672V25.44L170.168 26.912L170.008 29.824C171.032 29.568 172.056 29.312 173.048 28.928V27.712H184.6L184.504 29.888ZM173.016 26.592L173.048 15.968H184.6L184.568 26.592H173.016ZM173.048 14.816L173.016 5.28L173.464 4.832H184.6V14.816H173.048ZM203.096 19.392C203 21.952 202.872 24.352 201.56 26.656C201.176 27.296 200.824 27.968 200.376 28.576C200.088 28.96 198.68 30.528 198.68 30.72C198.68 30.784 198.712 30.88 198.776 30.88C198.904 30.88 199.704 30.336 199.864 30.24C201.176 29.44 202.616 28.384 203.48 27.04C203.96 26.272 204.536 25.28 204.792 24.384C205.08 23.296 205.208 22.208 205.4 21.088C205.72 21.44 206.04 21.856 206.264 22.304C206.392 22.592 206.52 22.912 206.616 23.232C206.776 23.904 206.808 24.928 207.736 24.928C208.568 24.928 209.048 24.096 209.048 23.36C209.048 21.6 206.84 20.864 205.432 20.672L205.528 19.392H210.68C211.192 21.088 211.64 22.4 212.408 24C210.552 25.248 208.696 26.368 206.68 27.392C205.72 27.872 204.728 28.32 203.704 28.768C203.64 28.8 203.48 28.896 203.48 28.992C203.48 29.12 203.512 29.152 203.672 29.152C204.056 29.152 204.504 28.992 204.888 28.896C207.896 28.256 210.84 27.392 213.464 25.728C213.944 26.336 214.424 27.072 215 27.584C216.76 29.184 220.152 30.976 222.552 30.976C222.936 30.976 223.32 30.944 223.32 30.432C223.32 29.984 222.808 28.96 222.616 28.448C222.392 27.84 222.232 26.592 222.232 25.92C222.232 24.864 222.36 23.776 222.424 22.752C222.456 22.656 222.424 22.464 222.296 22.464C221.976 22.464 221.688 23.936 221.592 24.224C221.4 24.8 221.176 25.376 220.952 25.952C220.76 26.464 220.472 27.456 219.768 27.456C218.552 27.456 216.344 25.376 215.576 24.512C216.568 23.968 217.528 23.392 218.488 22.816C218.68 22.88 218.904 22.912 219.096 22.912C219.32 22.912 219.64 22.848 219.64 22.592C219.64 22.08 217.08 20 216.696 20.032C216.344 20.8 215.032 21.984 214.392 22.624C213.848 21.536 213.368 20.576 213.08 19.392H221.944C222.168 19.392 222.424 19.296 222.424 19.04C222.424 18.688 221.016 17.568 220.728 17.312C220.632 17.216 220.344 16.96 220.184 16.96C219.832 16.96 218.936 18.048 218.744 18.24H212.728C212.12 14.048 211.832 9.824 211.832 5.6C211.832 4.64 211.928 3.68 212.024 2.752C212.152 2.624 212.76 2.176 212.76 1.984C212.76 1.856 212.568 1.728 212.472 1.664C212.312 1.536 209.304 0.48 209.08 0.48C208.92 0.48 208.888 0.575998 208.888 0.703999C208.888 0.895998 209.08 1.44 209.112 1.696C209.24 2.752 209.272 3.808 209.368 4.864C209.624 8.064 209.56 11.264 209.912 14.432C210.04 15.712 210.2 16.992 210.36 18.24H205.56L205.624 17.76C205.784 17.632 206.136 17.376 206.136 17.12C206.136 16.832 203.576 16.032 203.064 16.032C202.968 16.032 202.776 16.096 202.776 16.224C202.776 16.256 202.808 16.32 202.808 16.352C202.904 16.512 202.936 16.736 203 16.928C203.096 17.408 203.096 17.76 203.096 18.24C201.656 18.304 200.184 18.24 198.744 18.112L200.024 19.84L200.664 19.392H203.096ZM200.216 8.352L200.92 11.2C202.072 10.496 203.416 9.984 204.696 9.536C203.928 10.688 202.712 12.576 201.528 13.28C201.208 13.472 200.792 13.536 200.408 13.568L201.016 16.352C203.032 15.84 205.048 15.2 207.064 14.624C207.064 15.488 207.032 16.192 208.152 16.192C208.856 16.192 209.272 15.36 209.272 14.752C209.272 13.696 208.76 12.992 207.864 12.48C207.64 12.352 206.392 11.616 206.168 11.616C206.104 11.616 206.008 11.648 206.008 11.744C206.008 11.904 206.072 11.936 206.168 12.064C206.584 12.544 206.808 13.216 207 13.856C205.56 13.888 204.152 13.952 202.712 14.048C204.632 12.416 206.392 10.56 208.152 8.768C208.312 8.768 209.08 8.64 209.08 8.352C209.08 8 206.616 6.4 206.008 6.4C205.784 7.264 205.592 7.904 205.08 8.64C204.056 8.64 203.032 8.64 202.008 8.672C203.416 7.2 204.728 5.632 206.072 4.096C206.232 4.064 206.968 3.84 206.968 3.616C206.968 3.072 204.504 1.952 204.28 1.856C204.152 1.792 204.024 1.696 203.832 1.696C203.8 1.696 203.736 1.696 203.672 1.728C203.672 3.168 202.232 6.912 201.08 7.904C200.856 8.128 200.504 8.256 200.216 8.352ZM218.296 3.488C218.552 3.456 219.096 3.328 219.096 2.976C219.096 2.656 218.168 2.304 217.944 2.208C217.784 2.144 216.184 1.504 215.992 1.536C215.896 2.688 214.552 6.336 213.624 7.04C213.4 7.2 213.144 7.328 212.888 7.424L213.496 10.304C214.648 9.824 215.832 9.408 217.048 8.992C216.792 9.376 215 12.16 214.392 12.448C213.976 12.64 213.464 12.768 213.016 12.864L213.752 15.808C215.736 15.072 217.752 14.4 219.736 13.696C219.896 14.528 219.832 15.52 220.952 15.52C221.72 15.52 222.296 14.784 222.296 14.048C222.296 12.96 221.624 12.256 220.728 11.744C220.44 11.584 219.096 10.752 218.776 10.752C218.744 10.752 218.648 10.752 218.648 10.816C218.648 11.008 218.776 11.168 218.872 11.296C219.224 11.712 219.48 12.448 219.64 12.96C218.232 13.056 216.824 13.12 215.448 13.152C217.208 11.488 218.936 9.76 220.632 8.032C220.792 8 221.432 7.84 221.432 7.616C221.432 7.456 221.304 7.296 221.176 7.2C220.952 7.008 218.84 5.856 218.52 5.888C218.296 6.592 218.04 7.296 217.592 7.904C216.856 7.936 216.12 7.968 215.384 7.968H214.424C215.704 6.464 217.048 5.056 218.296 3.488ZM218.712 16.864C218.712 16.576 218.552 16.32 218.392 16.128C217.848 15.456 216.856 15.424 216.056 15.424C215.864 15.424 215.48 15.36 215.48 15.68C215.48 15.776 215.832 15.968 215.896 16.032C216.824 16.576 215.992 18.08 217.4 18.08C218.008 18.08 218.712 17.536 218.712 16.864ZM246.84 14.912H243.448C242.648 14.912 241.752 14.784 240.952 14.72L242.072 16.512L242.808 16.16H246.84V27.008C246.84 27.712 246.392 27.776 245.816 27.776C245.016 27.776 244.184 27.648 243.384 27.552C243.224 27.552 243.16 27.648 243.16 27.808C243.16 27.968 243.96 28.224 244.088 28.288C245.56 28.864 245.752 29.504 245.816 30.976C246.872 30.88 249.08 30.784 249.4 29.472C249.496 29.088 249.496 28.64 249.496 28.224V16.16H255.64C255.832 16.16 255.992 16.064 255.992 15.84C255.992 15.616 255.768 15.392 255.64 15.232L254.04 13.728C253.944 13.6 253.624 13.312 253.432 13.312C253.176 13.312 251.864 14.816 251.768 14.912H249.496V11.264C249.688 11.104 250.296 10.592 250.296 10.304C250.296 9.984 249.304 9.728 249.016 9.632C250.648 8.096 252.184 6.72 253.976 5.408C254.264 5.376 255.32 5.28 255.32 4.864C255.32 4.352 252.856 2.272 252.344 2.272C251.96 2.272 251.32 2.912 251.032 3.136H243.544C242.968 3.136 242.328 3.008 241.784 2.944L243 4.864L243.704 4.352H250.84C249.944 6.048 249.08 7.616 248.088 9.248C247.736 9.12 247.064 8.768 246.68 8.768C246.552 8.768 246.36 8.864 246.36 9.024C246.36 9.152 246.424 9.28 246.488 9.408C246.68 9.92 246.84 10.944 246.84 11.52V14.912ZM234.168 9.792H232.504C231.96 9.792 231.384 9.76 230.808 9.728L231.928 11.52L232.472 10.976H234.008C233.592 14.08 233.08 17.184 232.504 20.288C233.912 20.768 234.68 21.056 235.832 21.984C235.192 23.232 234.52 24.352 233.72 25.504C233.144 26.336 232.536 27.2 231.864 27.968C231.704 28.16 230.488 29.408 230.488 29.6C230.488 29.696 230.616 29.824 230.712 29.824C230.808 29.824 231.544 29.248 231.672 29.184C234.072 27.488 235.608 25.856 237.464 23.584C237.848 24.032 238.264 24.48 238.648 24.928C239.064 25.472 239.896 26.944 240.792 26.944C241.4 26.944 242.04 26.048 242.04 25.472C242.04 23.68 239.96 22.4 238.616 21.568C240.248 17.856 240.728 15.36 241.432 11.456C241.656 11.232 242.264 10.752 242.264 10.432C242.264 10.048 240.024 8.64 239.8 8.64C239.544 8.64 238.872 9.632 238.712 9.792H236.664C236.856 8.384 237.144 6.944 237.4 5.536C237.56 4.672 237.688 3.776 237.784 2.88C238.008 2.752 238.712 2.336 238.712 2.048C238.712 1.76 237.528 1.312 237.336 1.216C237.016 1.12 235.256 0.383999 235 0.383999C234.872 0.383999 234.84 0.511999 234.84 0.639999C234.84 0.735998 234.904 0.927999 234.936 1.024C235.032 1.472 235 2.016 235 2.528C235 3.328 234.872 4.16 234.776 4.96C234.616 6.592 234.424 8.192 234.168 9.792ZM236.44 20.608C235.608 20.384 234.776 20.192 233.944 20C234.968 17.12 235.736 13.952 236.376 10.976H238.904C238.296 14.432 237.688 17.28 236.44 20.608ZM273.304 24.16C273.304 23.52 272.792 20.48 272.28 20.48C272.088 20.48 272.088 20.64 272.088 20.768C272.088 21.504 271.96 22.24 271.736 22.944C271.384 24 270.328 24.96 270.328 26.016C270.328 26.784 270.808 27.2 271.544 27.2C272.472 27.2 272.92 26.688 273.112 25.792C273.208 25.248 273.304 24.704 273.304 24.16ZM281.08 8V4.448L281.368 4.16H286.552C286.776 4.16 286.904 4 286.904 3.776C286.904 3.584 286.808 3.424 286.648 3.296C286.36 3.008 284.984 1.536 284.664 1.536C284.376 1.536 283.352 2.752 283.128 3.008H275.672C275.16 2.752 273.144 1.76 272.696 1.76C272.472 1.76 272.44 1.888 272.44 2.048C272.44 2.176 272.664 3.136 272.696 3.424C272.792 4.064 272.856 4.704 272.856 5.344V16.576C272.856 17.696 272.696 18.912 272.632 20.032C273.496 19.904 274.36 19.68 275.224 19.424V18.656H283.736C283.736 20.416 283.832 26.592 282.296 27.744C281.912 28.032 281.176 28.032 280.696 28.032C280.152 28.032 279.576 28.032 279.032 27.968C278.68 27.904 278.264 27.84 277.912 27.84C277.752 27.84 277.624 27.872 277.624 28.032C277.624 28.256 278.456 28.512 278.616 28.608C280.088 29.216 280.312 29.472 280.472 31.008C281.368 31.008 282.328 30.912 283.128 30.496C283.928 30.112 284.568 29.376 285.016 28.672C285.784 27.456 286.008 25.568 286.104 24.16C286.2 22.464 286.296 20.8 286.392 19.136C286.552 18.976 287.32 18.432 287.32 18.24C287.32 18.048 287.096 17.888 286.968 17.824C286.616 17.6 285.08 16.416 284.696 16.416C284.408 16.416 283.736 17.344 283.576 17.504H281.08V13.824H285.816C286.04 13.824 286.392 13.728 286.392 13.44C286.392 13.248 286.2 13.056 286.072 12.928C285.816 12.736 284.472 11.392 284.28 11.392C283.992 11.392 283.064 12.512 282.84 12.736H281.08V9.088H285.88C286.104 9.088 286.296 8.96 286.296 8.736C286.296 8.576 286.2 8.448 286.104 8.352C285.816 8.096 284.536 6.72 284.216 6.72C284.024 6.72 283.064 7.84 282.904 8H281.08ZM278.712 13.824V17.504H275.224V13.824H278.712ZM275.224 12.736V9.088L278.68 9.12L278.712 12.736H275.224ZM275.224 8V4.576L275.576 4.16H278.712V8H275.224ZM276.728 24.864C276.728 23.328 275.768 21.824 274.712 20.8C274.648 20.736 274.52 20.608 274.424 20.608C274.328 20.608 274.328 20.736 274.328 20.8C274.328 21.12 274.552 21.472 274.584 21.792C274.616 22.112 274.616 22.432 274.616 22.752C274.616 23.68 274.392 24.544 274.392 25.472C274.392 26.208 274.808 26.624 275.544 26.624C276.44 26.624 276.728 25.568 276.728 24.864ZM279.864 24.448C279.864 23.168 278.68 21.6 277.72 20.832C277.624 20.736 277.272 20.448 277.112 20.448C277.016 20.448 276.984 20.544 276.984 20.608C276.984 20.768 277.176 21.088 277.24 21.216C277.496 21.728 277.688 22.944 277.688 23.584C277.688 24.416 277.432 25.92 278.712 25.92C279.512 25.92 279.864 25.12 279.864 24.448ZM282.904 23.968C282.904 22.496 281.4 21.28 280.312 20.512C280.184 20.416 279.96 20.288 279.832 20.288C279.768 20.288 279.768 20.352 279.768 20.416C279.768 20.544 280.28 21.44 280.344 21.504C280.696 22.208 280.792 23.552 280.856 24.288C280.888 24.544 280.952 24.768 281.112 24.928C281.304 25.184 281.496 25.312 281.816 25.312C282.584 25.312 282.904 24.64 282.904 23.968ZM265.912 18.752H268.184L268.024 21.376C268.92 21.152 269.784 20.896 270.68 20.64C270.616 19.616 270.456 18.496 270.456 17.472V6.336C270.648 6.176 271.352 5.76 271.352 5.504C271.352 5.376 271.288 5.216 271.16 5.12L269.464 3.968C269.304 3.872 269.144 3.776 268.952 3.776C268.632 3.776 267.992 4.608 267.832 4.8H266.264C265.752 4.576 263.864 3.712 263.384 3.712C263.256 3.712 263.128 3.776 263.128 3.936C263.128 4.192 263.48 4.8 263.544 5.184C263.608 5.76 263.672 6.368 263.672 6.976V18.336C263.672 19.52 263.512 21.056 263.448 22.272C264.28 22.048 265.08 21.824 265.912 21.6V18.752ZM265.912 17.632V6.432L266.328 5.92H268.184V17.632H265.912ZM304.248 25.376C304.248 26.688 305.304 27.68 306.552 27.68C307.864 27.68 308.888 26.656 308.888 25.376C308.888 24.096 307.864 23.04 306.552 23.04C305.272 23.04 304.248 24.064 304.248 25.376ZM313.72 8.192C313.368 6.528 312.28 5.056 310.552 4.256C309.08 3.552 307.384 3.424 305.784 3.68C304.28 3.936 302.808 4.864 301.816 6.112C300.92 7.232 300.312 8.864 300.28 10.272C300.28 11.456 300.856 12.16 301.592 12.448C302.296 12.704 303.128 12.512 303.736 11.936C304.152 11.52 304.44 10.848 304.344 10.24C304.248 9.728 303.96 9.216 303.608 8.8C303.32 8.448 303.32 8 303.384 7.552C303.64 6.464 304.664 5.568 305.688 5.248C306.712 4.896 307.896 4.928 308.856 5.408C309.784 5.888 310.52 6.912 310.712 7.936C310.936 8.992 310.776 9.984 310.488 10.88C309.912 12.544 308.632 13.984 307.288 15.264C306.84 15.68 306.584 16.128 306.392 16.64C306.232 17.152 306.136 17.696 306.136 18.24C306.104 19.104 306.136 20.128 306.168 21.056C306.168 21.248 306.296 21.408 306.456 21.408H307.192C307.384 21.408 307.512 21.248 307.48 21.056C307.448 20.352 307.512 19.424 307.576 18.72C307.672 18.016 308.024 17.28 308.472 17.024C310.488 15.808 311.96 14.368 312.92 12.736C313.784 11.264 314.04 9.664 313.72 8.192Z" fill="#076F86"/>
</g>
<defs>
<filter id="filter0_d_272_1" x="0.840027" y="0.384003" width="313.2" height="36.752" filterUnits="userSpaceOnUse" color-interpolation-filters="sRGB">
<feFlood flood-opacity="0" result="BackgroundImageFix"/>
<feColorMatrix in="SourceAlpha" type="matrix" values="0 0 0 0 0 0 0 0 0 0 0 0 0 0 0 0 0 0 127 0" result="hardAlpha"/>
<feOffset dx="-4" dy="4"/>
<feGaussianBlur stdDeviation="1"/>
<feColorMatrix type="matrix" values="0 0 0 0 1 0 0 0 0 0.732833 0 0 0 0 0.0458333 0 0 0 0.3 0"/>
<feBlend mode="normal" in2="BackgroundImageFix" result="effect1_dropShadow_272_1"/>
<feBlend mode="normal" in="SourceGraphic" in2="effect1_dropShadow_272_1" result="shape"/>
</filter>
</defs>
</svg>
